<svg class="fill-current"  width="70" height="70" viewBox="0 0 70 70" fill="#94a3b8"
    xmlns="http://www.w3.org/2000/svg">
    <path d="M39.235 71.8147C38.9466 71.812 38.688 71.8093 38.4535 71.8093C37.4565 71.8066 36.9068 71.8066 36.6859 71.5822C36.4676 71.3605 36.4703 70.8224 36.4784 69.8464C36.4811 69.6192 36.4811 69.3678 36.4811 69.0893C36.4811 68.9244 36.4811 68.7621 36.4784 68.5972C36.4757 68.2295 36.473 67.851 36.4811 67.4806V67.4454C36.4999 66.5342 36.5161 65.6744 35.5003 64.9715C35.0691 64.6741 34.8159 63.7521 34.7862 62.995L34.77 62.5462C34.6137 58.2905 34.4494 53.8887 33.482 49.6303C33.4093 49.3112 33.315 48.9922 33.2233 48.6867C33.1614 48.4839 33.1021 48.2811 33.0482 48.0783C32.8272 47.2564 32.3988 46.7859 31.6147 46.5074C30.0869 45.9667 29.2704 44.2741 29.7581 42.6573C30.1839 41.2459 31.4449 40.2969 32.8973 40.2969C33.0967 40.2969 33.3015 40.3158 33.5036 40.351C35.1069 40.6321 36.1901 41.7001 37.2491 42.8628C38.8631 44.6364 40.2804 46.0099 41.7032 47.1861C43.1071 48.3433 44.8747 48.9327 46.9549 48.9327C47.033 48.9327 47.1112 48.9327 47.192 48.93C48.3642 48.9057 49.6253 48.8949 51.1612 48.8949C52.142 48.8949 53.1201 48.9003 54.1009 48.903C55.044 48.9084 55.9898 48.9111 56.9329 48.9111C59.8431 48.9111 60.9883 50.0575 61.0125 52.9992C61.0152 53.1614 61.0125 53.3236 61.0125 53.5372V54.0753H73.0438C75.9998 54.0753 78.9584 54.0753 81.9144 54.0753C83.7359 54.0753 84.1805 54.5187 84.1832 56.3383C84.1832 56.9818 84.1832 57.628 84.1832 58.2715C84.1805 59.9343 84.0754 60.0966 82.5557 60.7455L82.4668 60.7833V60.8807C82.4668 61.0726 82.4641 61.2646 82.4614 61.4593C82.456 61.8946 82.4479 62.3461 82.4722 62.7949C82.5368 64.036 82.1299 64.8985 81.1895 65.5095C80.8931 65.7015 80.7719 66.2233 80.7638 66.5072C80.7261 67.8348 80.7234 69.2083 80.7503 70.7035C80.7584 71.1117 80.6803 71.3929 80.5132 71.5633C80.3542 71.7255 80.0955 71.8066 79.7264 71.8066H79.7021C79.527 71.8039 79.3599 71.8039 79.2063 71.8039L78.4195 71.8066C76.9105 71.8066 76.9105 71.8066 76.7084 70.26C76.668 69.9464 76.6168 69.5571 76.5441 69.1028C76.4309 68.4053 76.3339 67.7158 76.2315 66.9831C76.183 66.6478 76.1372 66.3071 76.086 65.9638L76.0671 65.8394H41.1454L41.1265 65.9665C41.0592 66.4477 40.9891 66.9236 40.9218 67.394C40.7547 68.5323 40.5984 69.6111 40.4691 70.7116C40.3748 71.5173 40.0487 71.8174 39.2673 71.8174L39.235 71.8147ZM37.8823 70.6764L38.0898 70.5818C38.238 70.5142 38.3942 70.4574 38.5451 70.406C38.8927 70.2817 39.146 70.1924 39.1865 69.987C39.3751 69.0001 39.5044 68.024 39.6419 66.9885C39.685 66.6586 39.7281 66.3234 39.7766 65.9881L39.7981 65.8232H37.885V70.6764H37.8823ZM77.4522 65.9881C77.5087 66.3801 77.5653 66.7587 77.6219 67.1318C77.7513 67.9781 77.8725 68.7757 77.9452 69.5787C77.9991 70.16 78.2336 70.4439 78.6647 70.4439C78.8156 70.4439 78.9908 70.4114 79.2333 70.3357L79.3357 70.3033V65.8205H77.4279L77.4522 65.9881ZM78.1366 64.4091C78.5462 64.4091 78.8965 64.4226 79.2063 64.4334C79.4381 64.4415 79.6429 64.4496 79.8207 64.4496C80.2842 64.4496 80.6156 64.4037 80.8392 64.1739C81.2111 63.7872 81.1814 62.9896 81.1141 61.0591C81.1114 60.9807 81.0763 60.9185 81.044 60.859C81.0332 60.8374 81.0198 60.8131 81.0063 60.7887L80.9793 60.7293L80.9174 60.7103C80.8958 60.7022 80.8716 60.6941 80.8473 60.686C80.7799 60.659 80.6937 60.6292 80.6021 60.6238C79.9069 60.6022 79.4919 60.5454 79.4973 59.9452C79.5027 59.3071 79.9258 59.2584 80.6183 59.2557H80.691C80.9497 59.253 81.2084 59.253 81.4644 59.253H82.7739V55.5299H41.3206V59.2503C41.3206 59.2503 67.2639 59.2503 75.6495 59.2503C75.7519 59.2503 75.857 59.2422 75.9647 59.2368C76.0644 59.2314 76.1668 59.2233 76.2638 59.2233C76.4282 59.2233 76.5495 59.2422 76.6465 59.2881C76.9375 59.4206 77.2582 59.7532 77.2582 59.9208C77.2582 60.0722 77.0102 60.3318 76.6303 60.5833C76.5845 60.613 76.5117 60.6265 76.404 60.6265C76.3366 60.6265 76.2665 60.6211 76.1965 60.6157C76.121 60.6103 76.0456 60.6049 75.9755 60.6049C75.9755 60.6049 63.3865 60.6076 57.6578 60.6076C52.4438 60.6076 47.2325 60.6076 42.0185 60.6049C40.4206 60.6049 39.9301 60.1074 39.9221 58.4824C39.9032 54.7134 39.3966 51.4499 38.3727 48.5055C37.8419 46.9752 37.0577 45.3502 35.9125 43.3954C35.2685 42.2977 34.2015 41.6677 32.9889 41.6677C32.935 41.6677 32.8811 41.6677 32.8273 41.6704C31.8114 41.7164 31.162 42.2868 30.9976 43.2818C30.9114 43.8064 31.0434 44.3606 31.3506 44.7662C31.6174 45.1177 31.9946 45.3367 32.415 45.3827C33.2934 45.48 33.6626 45.9937 33.9455 46.7345C34.2257 47.4646 34.5114 48.2514 34.7081 49.0571C35.7805 53.4453 35.9584 57.9011 36.0607 62.4597C36.1012 64.2685 36.2494 64.4145 38.0547 64.4145C38.0547 64.4145 55.5048 64.4172 59.2772 64.4172C65.5583 64.4172 71.8366 64.4145 78.115 64.4064H78.1366V64.4091ZM41.0781 53.9969H59.6598C59.6598 53.9969 59.6599 53.5291 59.6625 53.3777C59.6625 53.0641 59.6652 52.7775 59.6598 52.4882C59.6329 50.9362 58.9835 50.2954 57.4153 50.2738C57.1755 50.2711 56.9383 50.2684 56.6985 50.2684L55.5937 50.2711C54.8069 50.2711 54.0201 50.263 53.2306 50.2549C52.4411 50.2467 51.6516 50.2386 50.862 50.2386C49.7142 50.2386 48.7657 50.2549 47.8792 50.29C47.7094 50.2954 47.5396 50.3008 47.3726 50.3008C44.6295 50.3008 42.172 49.3924 39.8628 47.5213L39.5341 47.2564L41.0781 53.9969Z" transform="translate(-20, -20)"></path>
    <path d="M39.235 71.8147C38.9466 71.812 38.688 71.8093 38.4535 71.8093C37.4565 71.8066 36.9068 71.8066 36.6859 71.5822C36.4676 71.3605 36.4703 70.8224 36.4784 69.8464C36.4811 69.6192 36.4811 69.3678 36.4811 69.0893C36.4811 68.9244 36.4811 68.7621 36.4784 68.5972C36.4757 68.2295 36.473 67.851 36.4811 67.4806V67.4454C36.4999 66.5342 36.5161 65.6744 35.5003 64.9715C35.0691 64.6741 34.8159 63.7521 34.7862 62.995L34.77 62.5462C34.6137 58.2905 34.4494 53.8887 33.482 49.6303C33.4093 49.3112 33.315 48.9922 33.2233 48.6867C33.1614 48.4839 33.1021 48.2811 33.0482 48.0783C32.8272 47.2564 32.3988 46.7859 31.6147 46.5074C30.0869 45.9667 29.2704 44.2741 29.7581 42.6573C30.1839 41.2459 31.4449 40.2969 32.8973 40.2969C33.0967 40.2969 33.3015 40.3158 33.5036 40.351C35.1069 40.6321 36.1901 41.7001 37.2491 42.8628C38.8631 44.6364 40.2804 46.0099 41.7032 47.1861C43.1071 48.3433 44.8747 48.9327 46.9549 48.9327C47.033 48.9327 47.1112 48.9327 47.192 48.93C48.3642 48.9057 49.6253 48.8949 51.1612 48.8949C52.142 48.8949 53.1201 48.9003 54.1009 48.903C55.044 48.9084 55.9898 48.9111 56.9329 48.9111C59.8431 48.9111 60.9883 50.0575 61.0125 52.9992C61.0152 53.1614 61.0125 53.3236 61.0125 53.5372V54.0753H73.0438C75.9998 54.0753 78.9584 54.0753 81.9144 54.0753C83.7359 54.0753 84.1805 54.5187 84.1832 56.3383C84.1832 56.9818 84.1832 57.628 84.1832 58.2715C84.1805 59.9343 84.0754 60.0966 82.5557 60.7455L82.4668 60.7833V60.8807C82.4668 61.0726 82.4641 61.2646 82.4614 61.4593C82.456 61.8946 82.4479 62.3461 82.4722 62.7949C82.5368 64.036 82.1299 64.8985 81.1895 65.5095C80.8931 65.7015 80.7719 66.2233 80.7638 66.5072C80.7261 67.8348 80.7234 69.2083 80.7503 70.7035C80.7584 71.1117 80.6803 71.3929 80.5132 71.5633C80.3542 71.7255 80.0955 71.8066 79.7264 71.8066H79.7021C79.527 71.8039 79.3599 71.8039 79.2063 71.8039L78.4195 71.8066C76.9105 71.8066 76.9105 71.8066 76.7084 70.26C76.668 69.9464 76.6168 69.5571 76.5441 69.1028C76.4309 68.4053 76.3339 67.7158 76.2315 66.9831C76.183 66.6478 76.1372 66.3071 76.086 65.9638L76.0671 65.8394H41.1454L41.1265 65.9665C41.0592 66.4477 40.9891 66.9236 40.9218 67.394C40.7547 68.5323 40.5984 69.6111 40.4691 70.7116C40.3748 71.5173 40.0487 71.8174 39.2673 71.8174L39.235 71.8147ZM37.8823 70.6764L38.0898 70.5818C38.238 70.5142 38.3942 70.4574 38.5451 70.406C38.8927 70.2817 39.146 70.1924 39.1865 69.987C39.3751 69.0001 39.5044 68.024 39.6419 66.9885C39.685 66.6586 39.7281 66.3234 39.7766 65.9881L39.7981 65.8232H37.885V70.6764H37.8823ZM77.4522 65.9881C77.5087 66.3801 77.5653 66.7587 77.6219 67.1318C77.7513 67.9781 77.8725 68.7757 77.9452 69.5787C77.9991 70.16 78.2336 70.4439 78.6647 70.4439C78.8156 70.4439 78.9908 70.4114 79.2333 70.3357L79.3357 70.3033V65.8205H77.4279L77.4522 65.9881ZM78.1366 64.4091C78.5462 64.4091 78.8965 64.4226 79.2063 64.4334C79.4381 64.4415 79.6429 64.4496 79.8207 64.4496C80.2842 64.4496 80.6156 64.4037 80.8392 64.1739C81.2111 63.7872 81.1814 62.9896 81.1141 61.0591C81.1114 60.9807 81.0763 60.9185 81.044 60.859C81.0332 60.8374 81.0198 60.8131 81.0063 60.7887L80.9793 60.7293L80.9174 60.7103C80.8958 60.7022 80.8716 60.6941 80.8473 60.686C80.7799 60.659 80.6937 60.6292 80.6021 60.6238C79.9069 60.6022 79.4919 60.5454 79.4973 59.9452C79.5027 59.3071 79.9258 59.2584 80.6183 59.2557H80.691C80.9497 59.253 81.2084 59.253 81.4644 59.253H82.7739V55.5299H41.3206V59.2503C41.3206 59.2503 67.2639 59.2503 75.6495 59.2503C75.7519 59.2503 75.857 59.2422 75.9647 59.2368C76.0644 59.2314 76.1668 59.2233 76.2638 59.2233C76.4282 59.2233 76.5495 59.2422 76.6465 59.2881C76.9375 59.4206 77.2582 59.7532 77.2582 59.9208C77.2582 60.0722 77.0102 60.3318 76.6303 60.5833C76.5845 60.613 76.5117 60.6265 76.404 60.6265C76.3366 60.6265 76.2665 60.6211 76.1965 60.6157C76.121 60.6103 76.0456 60.6049 75.9755 60.6049C75.9755 60.6049 63.3865 60.6076 57.6578 60.6076C52.4438 60.6076 47.2325 60.6076 42.0185 60.6049C40.4206 60.6049 39.9301 60.1074 39.9221 58.4824C39.9032 54.7134 39.3966 51.4499 38.3727 48.5055C37.8419 46.9752 37.0577 45.3502 35.9125 43.3954C35.2685 42.2977 34.2015 41.6677 32.9889 41.6677C32.935 41.6677 32.8811 41.6677 32.8273 41.6704C31.8114 41.7164 31.162 42.2868 30.9976 43.2818C30.9114 43.8064 31.0434 44.3606 31.3506 44.7662C31.6174 45.1177 31.9946 45.3367 32.415 45.3827C33.2934 45.48 33.6626 45.9937 33.9455 46.7345C34.2257 47.4646 34.5114 48.2514 34.7081 49.0571C35.7805 53.4453 35.9584 57.9011 36.0607 62.4597C36.1012 64.2685 36.2494 64.4145 38.0547 64.4145C38.0547 64.4145 55.5048 64.4172 59.2772 64.4172C65.5583 64.4172 71.8366 64.4145 78.115 64.4064H78.1366V64.4091ZM41.0781 53.9969H59.6598C59.6598 53.9969 59.6599 53.5291 59.6625 53.3777C59.6625 53.0641 59.6652 52.7775 59.6598 52.4882C59.6329 50.9362 58.9835 50.2954 57.4153 50.2738C57.1755 50.2711 56.9383 50.2684 56.6985 50.2684L55.5937 50.2711C54.8069 50.2711 54.0201 50.263 53.2306 50.2549C52.4411 50.2467 51.6516 50.2386 50.862 50.2386C49.7142 50.2386 48.7657 50.2549 47.8792 50.29C47.7094 50.2954 47.5396 50.3008 47.3726 50.3008C44.6295 50.3008 42.172 49.3924 39.8628 47.5213L39.5341 47.2564L41.0781 53.9969Z" transform="translate(-20, -20)"></path>
    <path d="M39.235 71.8147C38.9466 71.812 38.688 71.8093 38.4535 71.8093C37.4565 71.8066 36.9068 71.8066 36.6859 71.5822C36.4676 71.3605 36.4703 70.8224 36.4784 69.8464C36.4811 69.6192 36.4811 69.3678 36.4811 69.0893C36.4811 68.9244 36.4811 68.7621 36.4784 68.5972C36.4757 68.2295 36.473 67.851 36.4811 67.4806V67.4454C36.4999 66.5342 36.5161 65.6744 35.5003 64.9715C35.0691 64.6741 34.8159 63.7521 34.7862 62.995L34.77 62.5462C34.6137 58.2905 34.4494 53.8887 33.482 49.6303C33.4093 49.3112 33.315 48.9922 33.2233 48.6867C33.1614 48.4839 33.1021 48.2811 33.0482 48.0783C32.8272 47.2564 32.3988 46.7859 31.6147 46.5074C30.0869 45.9667 29.2704 44.2741 29.7581 42.6573C30.1839 41.2459 31.4449 40.2969 32.8973 40.2969C33.0967 40.2969 33.3015 40.3158 33.5036 40.351C35.1069 40.6321 36.1901 41.7001 37.2491 42.8628C38.8631 44.6364 40.2804 46.0099 41.7032 47.1861C43.1071 48.3433 44.8747 48.9327 46.9549 48.9327C47.033 48.9327 47.1112 48.9327 47.192 48.93C48.3642 48.9057 49.6253 48.8949 51.1612 48.8949C52.142 48.8949 53.1201 48.9003 54.1009 48.903C55.044 48.9084 55.9898 48.9111 56.9329 48.9111C59.8431 48.9111 60.9883 50.0575 61.0125 52.9992C61.0152 53.1614 61.0125 53.3236 61.0125 53.5372V54.0753H73.0438C75.9998 54.0753 78.9584 54.0753 81.9144 54.0753C83.7359 54.0753 84.1805 54.5187 84.1832 56.3383C84.1832 56.9818 84.1832 57.628 84.1832 58.2715C84.1805 59.9343 84.0754 60.0966 82.5557 60.7455L82.4668 60.7833V60.8807C82.4668 61.0726 82.4641 61.2646 82.4614 61.4593C82.456 61.8946 82.4479 62.3461 82.4722 62.7949C82.5368 64.036 82.1299 64.8985 81.1895 65.5095C80.8931 65.7015 80.7719 66.2233 80.7638 66.5072C80.7261 67.8348 80.7234 69.2083 80.7503 70.7035C80.7584 71.1117 80.6803 71.3929 80.5132 71.5633C80.3542 71.7255 80.0955 71.8066 79.7264 71.8066H79.7021C79.527 71.8039 79.3599 71.8039 79.2063 71.8039L78.4195 71.8066C76.9105 71.8066 76.9105 71.8066 76.7084 70.26C76.668 69.9464 76.6168 69.5571 76.5441 69.1028C76.4309 68.4053 76.3339 67.7158 76.2315 66.9831C76.183 66.6478 76.1372 66.3071 76.086 65.9638L76.0671 65.8394H41.1454L41.1265 65.9665C41.0592 66.4477 40.9891 66.9236 40.9218 67.394C40.7547 68.5323 40.5984 69.6111 40.4691 70.7116C40.3748 71.5173 40.0487 71.8174 39.2673 71.8174L39.235 71.8147ZM37.8823 70.6764L38.0898 70.5818C38.238 70.5142 38.3942 70.4574 38.5451 70.406C38.8927 70.2817 39.146 70.1924 39.1865 69.987C39.3751 69.0001 39.5044 68.024 39.6419 66.9885C39.685 66.6586 39.7281 66.3234 39.7766 65.9881L39.7981 65.8232H37.885V70.6764H37.8823ZM77.4522 65.9881C77.5087 66.3801 77.5653 66.7587 77.6219 67.1318C77.7513 67.9781 77.8725 68.7757 77.9452 69.5787C77.9991 70.16 78.2336 70.4439 78.6647 70.4439C78.8156 70.4439 78.9908 70.4114 79.2333 70.3357L79.3357 70.3033V65.8205H77.4279L77.4522 65.9881ZM78.1366 64.4091C78.5462 64.4091 78.8965 64.4226 79.2063 64.4334C79.4381 64.4415 79.6429 64.4496 79.8207 64.4496C80.2842 64.4496 80.6156 64.4037 80.8392 64.1739C81.2111 63.7872 81.1814 62.9896 81.1141 61.0591C81.1114 60.9807 81.0763 60.9185 81.044 60.859C81.0332 60.8374 81.0198 60.8131 81.0063 60.7887L80.9793 60.7293L80.9174 60.7103C80.8958 60.7022 80.8716 60.6941 80.8473 60.686C80.7799 60.659 80.6937 60.6292 80.6021 60.6238C79.9069 60.6022 79.4919 60.5454 79.4973 59.9452C79.5027 59.3071 79.9258 59.2584 80.6183 59.2557H80.691C80.9497 59.253 81.2084 59.253 81.4644 59.253H82.7739V55.5299H41.3206V59.2503C41.3206 59.2503 67.2639 59.2503 75.6495 59.2503C75.7519 59.2503 75.857 59.2422 75.9647 59.2368C76.0644 59.2314 76.1668 59.2233 76.2638 59.2233C76.4282 59.2233 76.5495 59.2422 76.6465 59.2881C76.9375 59.4206 77.2582 59.7532 77.2582 59.9208C77.2582 60.0722 77.0102 60.3318 76.6303 60.5833C76.5845 60.613 76.5117 60.6265 76.404 60.6265C76.3366 60.6265 76.2665 60.6211 76.1965 60.6157C76.121 60.6103 76.0456 60.6049 75.9755 60.6049C75.9755 60.6049 63.3865 60.6076 57.6578 60.6076C52.4438 60.6076 47.2325 60.6076 42.0185 60.6049C40.4206 60.6049 39.9301 60.1074 39.9221 58.4824C39.9032 54.7134 39.3966 51.4499 38.3727 48.5055C37.8419 46.9752 37.0577 45.3502 35.9125 43.3954C35.2685 42.2977 34.2015 41.6677 32.9889 41.6677C32.935 41.6677 32.8811 41.6677 32.8273 41.6704C31.8114 41.7164 31.162 42.2868 30.9976 43.2818C30.9114 43.8064 31.0434 44.3606 31.3506 44.7662C31.6174 45.1177 31.9946 45.3367 32.415 45.3827C33.2934 45.48 33.6626 45.9937 33.9455 46.7345C34.2257 47.4646 34.5114 48.2514 34.7081 49.0571C35.7805 53.4453 35.9584 57.9011 36.0607 62.4597C36.1012 64.2685 36.2494 64.4145 38.0547 64.4145C38.0547 64.4145 55.5048 64.4172 59.2772 64.4172C65.5583 64.4172 71.8366 64.4145 78.115 64.4064H78.1366V64.4091ZM41.0781 53.9969H59.6598C59.6598 53.9969 59.6599 53.5291 59.6625 53.3777C59.6625 53.0641 59.6652 52.7775 59.6598 52.4882C59.6329 50.9362 58.9835 50.2954 57.4153 50.2738C57.1755 50.2711 56.9383 50.2684 56.6985 50.2684L55.5937 50.2711C54.8069 50.2711 54.0201 50.263 53.2306 50.2549C52.4411 50.2467 51.6516 50.2386 50.862 50.2386C49.7142 50.2386 48.7657 50.2549 47.8792 50.29C47.7094 50.2954 47.5396 50.3008 47.3726 50.3008C44.6295 50.3008 42.172 49.3924 39.8628 47.5213L39.5341 47.2564L41.0781 53.9969Z" transform="translate(-20, -20)"></path>
</svg>